<?xml version="1.0" standalone="no"?>
<!DOCTYPE svg PUBLIC "-//W3C//DTD SVG 20010904//EN"
 "http://www.w3.org/TR/2001/REC-SVG-20010904/DTD/svg10.dtd">
<svg version="1.0" xmlns="http://www.w3.org/2000/svg"
 width="512.000000pt" height="512.000000pt" viewBox="0 0 512.000000 512.000000"
 preserveAspectRatio="xMidYMid meet">
<metadata>
Created by potrace 1.16, written by Peter Selinger 2001-2019
</metadata>
<g transform="translate(0.000000,512.000000) scale(0.100000,-0.100000)"
fill="#000000" stroke="none">
<path d="M2265 5109 c-592 -71 -1125 -334 -1540 -760 -375 -385 -598 -825
-696 -1374 -21 -116 -24 -161 -24 -415 0 -254 3 -299 24 -415 101 -569 343
-1031 742 -1420 385 -375 825 -598 1374 -696 116 -21 161 -24 415 -24 254 0
299 3 415 24 276 49 483 116 720 231 246 121 448 264 654 465 399 389 641 851
742 1420 21 116 24 161 24 415 0 254 -3 299 -24 415 -49 276 -116 483 -231
720 -121 246 -264 448 -465 654 -389 399 -852 641 -1420 742 -97 17 -169 22
-375 25 -140 1 -291 -2 -335 -7z m393 -1737 c18 -9 251 -231 519 -492 531
-519 529 -516 521 -617 -12 -140 -169 -229 -293 -166 -20 11 -174 154 -343
319 -169 165 -351 342 -404 393 l-97 92 -403 -391 c-222 -216 -420 -401 -442
-412 -88 -45 -201 -15 -261 70 -26 38 -30 52 -30 110 1 42 7 78 17 97 9 17
239 246 511 510 425 412 502 482 543 498 55 19 111 16 162 -11z"/>
</g>
</svg>
